<svg xmlns="http://www.w3.org/2000/svg" xmlns:xlink="http://www.w3.org/1999/xlink" width="960" height="798.14"><rect width="960" height="798.14" rx="5" ry="5" class="a"/><svg y="0%" x="0%"><circle cx="20" cy="20" r="6" fill="#ff5f58"/><circle cx="40" cy="20" r="6" fill="#ffbd2e"/><circle cx="60" cy="20" r="6" fill="#18c132"/></svg><svg height="738.14" viewBox="0 0 92 73.814" width="920" x="15" xmlns="http://www.w3.org/2000/svg" xmlns:xlink="http://www.w3.org/1999/xlink" y="50"><style>@keyframes o{0%{transform:translateX(0)}5.3%{transform:translateX(-92px)}9.2%{transform:translateX(-184px)}17.6%{transform:translateX(-276px)}18%{transform:translateX(-368px)}25.6%{transform:translateX(-552px)}27.4%{transform:translateX(-644px)}35.5%{transform:translateX(-828px)}43.4%{transform:translateX(-1012px)}51.9%{transform:translateX(-1104px)}60%{transform:translateX(-1196px)}60.4%{transform:translateX(-1288px)}68%{transform:translateX(-1472px)}69.8%{transform:translateX(-1564px)}78%{transform:translateX(-1748px)}98.3%{transform:translateX(-1840px)}99.3%{transform:translateX(-2024px)}}.a{fill:#282d35}.f{fill:#b9c0cb;white-space:pre}.f,.g{font-weight:700}.g,.h,.i,.j{fill:#e88388;white-space:pre}.i,.j{fill:#b9c0cb}.j{fill:#dbab79}.k{font-weight:700}.k,.l{fill:#a8cc8c;white-space:pre}</style><g font-family="Monaco,Consolas,Menlo,'Bitstream Vera Sans Mono','Powerline Symbols',monospace" font-size="1.67"><defs><symbol id="1"><text y="1.67" class="f">model</text><text x="6.012" y="1.67" class="f">qwen2.5:7b-instruct-q4_K_M,</text><text x="34.068" y="1.67" class="f">MCP</text><text x="38.076" y="1.67" class="f">server</text><text x="45.09" y="1.67" class="f">killed</text><text x="52.104" y="1.67" class="f">mid</text><text x="56.112" y="1.67" class="f">session</text><text x="64.128" y="1.67" class="f">in</text><text x="67.134" y="1.67" class="f">both</text><text x="72.144" y="1.67" class="f">runs</text></symbol><symbol id="2"><text y="1.67" class="g">━━━━━━━━━━━━━━━━━━━━━━━━━━━━━━━━━━━━━━━━━━━━━━━━━━━━━━━━━━━━━━━━━━━━━━━━━━━━━━</text></symbol><symbol id="3"><text x="2.004" y="1.67" class="g">WITHOUT</text><text x="10.02" y="1.67" class="g">leeward</text></symbol><symbol id="4"><text y="1.67" class="h">&gt;</text><text x="2.004" y="1.67" class="h">What</text><text x="7.014" y="1.67" class="h">do</text><text x="10.02" y="1.67" class="h">the</text><text x="14.028" y="1.67" class="h">incident</text><text x="23.046" y="1.67" class="h">notes</text><text x="29.058" y="1.67" class="h">say</text><text x="33.066" y="1.67" class="h">about</text><text x="39.078" y="1.67" class="h">the</text><text x="43.086" y="1.67" class="h">blackout?</text></symbol><symbol id="5"><text x="2.004" y="1.67" class="i">calling</text><text x="10.02" y="1.67" class="i">incident_notes({&quot;query&quot;:</text><text x="35.07" y="1.67" class="i">&quot;blackout&quot;})</text></symbol><symbol id="6"><text x="2.004" y="1.67" class="i">3</text><text x="4.008" y="1.67" class="i">incident</text><text x="13.026" y="1.67" class="i">notes</text><text x="19.038" y="1.67" class="i">mention</text><text x="27.054" y="1.67" class="i">blackout</text></symbol><symbol id="7"><text x="2.004" y="1.67" class="i">The</text><text x="6.012" y="1.67" class="i">incident</text><text x="15.03" y="1.67" class="i">notes</text><text x="21.042" y="1.67" class="i">mention</text><text x="29.058" y="1.67" class="i">the</text><text x="33.066" y="1.67" class="i">blackout</text><text x="42.084" y="1.67" class="i">in</text><text x="45.09" y="1.67" class="i">3</text><text x="47.094" y="1.67" class="i">instances.</text><text x="58.116" y="1.67" class="i">More</text><text x="63.126" y="1.67" class="i">details</text><text x="71.142" y="1.67" class="i">would</text><text x="77.154" y="1.67" class="i">require</text><text x="85.17" y="1.67" class="i">reviewi</text></symbol><symbol id="8"><text y="1.67" class="i">ng</text><text x="3.006" y="1.67" class="i">these</text><text x="9.018" y="1.67" class="i">notes.</text></symbol><symbol id="9"><text x="2.004" y="1.67" class="j">[the</text><text x="7.014" y="1.67" class="j">MCP</text><text x="11.022" y="1.67" class="j">server</text><text x="18.036" y="1.67" class="j">is</text><text x="21.042" y="1.67" class="j">killed</text><text x="28.056" y="1.67" class="j">here]</text></symbol><symbol id="10"><text y="1.67" class="h">&gt;</text><text x="2.004" y="1.67" class="h">Check</text><text x="8.016" y="1.67" class="h">the</text><text x="12.024" y="1.67" class="h">notes</text><text x="18.036" y="1.67" class="h">for</text><text x="22.044" y="1.67" class="h">the</text><text x="26.052" y="1.67" class="h">blackout</text><text x="35.07" y="1.67" class="h">once</text><text x="40.08" y="1.67" class="h">more,</text><text x="46.092" y="1.67" class="h">and</text><text x="50.1" y="1.67" class="h">tell</text><text x="55.11" y="1.67" class="h">me</text><text x="58.116" y="1.67" class="h">how</text><text x="62.124" y="1.67" class="h">current</text><text x="70.14" y="1.67" class="h">your</text><text x="75.15" y="1.67" class="h">answer</text><text x="82.164" y="1.67" class="h">is.</text></symbol><symbol id="11"><text x="2.004" y="1.67" class="h">the</text><text x="6.012" y="1.67" class="h">call</text><text x="11.022" y="1.67" class="h">raised:</text><text x="19.038" y="1.67" class="h">MCPError:</text><text x="29.058" y="1.67" class="h">Connection</text><text x="40.08" y="1.67" class="h">closed</text></symbol><symbol id="12"><text x="2.004" y="1.67" class="i">I</text><text x="4.008" y="1.67" class="i">could</text><text x="10.02" y="1.67" class="i">not</text><text x="14.028" y="1.67" class="i">retrieve</text><text x="23.046" y="1.67" class="i">the</text><text x="27.054" y="1.67" class="i">incident</text><text x="36.072" y="1.67" class="i">notes</text><text x="42.084" y="1.67" class="i">for</text><text x="46.092" y="1.67" class="i">the</text><text x="50.1" y="1.67" class="i">blackout.</text><text x="60.12" y="1.67" class="i">Please</text><text x="67.134" y="1.67" class="i">provide</text><text x="75.15" y="1.67" class="i">more</text><text x="80.16" y="1.67" class="i">details</text><text x="88.176" y="1.67" class="i">if</text><text x="91.182" y="1.67" class="i">y</text></symbol><symbol id="13"><text y="1.67" class="i">ou</text><text x="3.006" y="1.67" class="i">have</text><text x="8.016" y="1.67" class="i">them.</text></symbol><symbol id="14"><text y="1.67" class="k">━━━━━━━━━━━━━━━━━━━━━━━━━━━━━━━━━━━━━━━━━━━━━━━━━━━━━━━━━━━━━━━━━━━━━━━━━━━━━━</text></symbol><symbol id="15"><text x="2.004" y="1.67" class="k">WITH</text><text x="7.014" y="1.67" class="k">leeward</text></symbol><symbol id="16"><text y="1.67" class="l">&gt;</text><text x="2.004" y="1.67" class="l">What</text><text x="7.014" y="1.67" class="l">do</text><text x="10.02" y="1.67" class="l">the</text><text x="14.028" y="1.67" class="l">incident</text><text x="23.046" y="1.67" class="l">notes</text><text x="29.058" y="1.67" class="l">say</text><text x="33.066" y="1.67" class="l">about</text><text x="39.078" y="1.67" class="l">the</text><text x="43.086" y="1.67" class="l">blackout?</text></symbol><symbol id="17"><text x="2.004" y="1.67" class="i">leeward:</text><text x="11.022" y="1.67" class="i">FRESH</text><text x="17.034" y="1.67" class="i">PROCEED</text></symbol><symbol id="18"><text y="1.67" class="l">&gt;</text><text x="2.004" y="1.67" class="l">Check</text><text x="8.016" y="1.67" class="l">the</text><text x="12.024" y="1.67" class="l">notes</text><text x="18.036" y="1.67" class="l">for</text><text x="22.044" y="1.67" class="l">the</text><text x="26.052" y="1.67" class="l">blackout</text><text x="35.07" y="1.67" class="l">once</text><text x="40.08" y="1.67" class="l">more,</text><text x="46.092" y="1.67" class="l">and</text><text x="50.1" y="1.67" class="l">tell</text><text x="55.11" y="1.67" class="l">me</text><text x="58.116" y="1.67" class="l">how</text><text x="62.124" y="1.67" class="l">current</text><text x="70.14" y="1.67" class="l">your</text><text x="75.15" y="1.67" class="l">answer</text><text x="82.164" y="1.67" class="l">is.</text></symbol><symbol id="19"><text x="2.004" y="1.67" class="i">leeward:</text><text x="11.022" y="1.67" class="i">STALE{TOOL_GONE}</text><text x="28.056" y="1.67" class="i">PROCEED_WITH_CAUTION</text></symbol><symbol id="20"><text x="2.004" y="1.67" class="i">[leeward]</text><text x="12.024" y="1.67" class="i">STALE:</text><text x="19.038" y="1.67" class="i">served</text><text x="26.052" y="1.67" class="i">a</text><text x="28.056" y="1.67" class="i">copy</text><text x="33.066" y="1.67" class="i">stored</text><text x="40.08" y="1.67" class="i">2s</text><text x="43.086" y="1.67" class="i">ago</text><text x="47.094" y="1.67" class="i">because</text><text x="55.11" y="1.67" class="i">intel/incident_notes</text><text x="76.152" y="1.67" class="i">is</text><text x="79.158" y="1.67" class="i">unreachable</text><text x="91.182" y="1.67" class="i">(</text></symbol><symbol id="21"><text y="1.67" class="i">TOOL_G</text></symbol><symbol id="22"><text x="2.004" y="1.67" class="i">The</text><text x="6.012" y="1.67" class="i">incident</text><text x="15.03" y="1.67" class="i">notes</text><text x="21.042" y="1.67" class="i">mention</text><text x="29.058" y="1.67" class="i">the</text><text x="33.066" y="1.67" class="i">blackout,</text><text x="43.086" y="1.67" class="i">but</text><text x="47.094" y="1.67" class="i">the</text><text x="51.102" y="1.67" class="i">information</text><text x="63.126" y="1.67" class="i">is</text><text x="66.132" y="1.67" class="i">stale</text><text x="72.144" y="1.67" class="i">as</text><text x="75.15" y="1.67" class="i">the</text><text x="79.158" y="1.67" class="i">endpoint</text><text x="88.176" y="1.67" class="i">is</text><text x="91.182" y="1.67" class="i">u</text></symbol><symbol id="23"><text y="1.67" class="i">nreachable</text><text x="11.022" y="1.67" class="i">and</text><text x="15.03" y="1.67" class="i">classified</text><text x="26.052" y="1.67" class="i">as</text><text x="29.058" y="1.67" class="i">`volatile`.</text><text x="41.082" y="1.67" class="i">The</text><text x="45.09" y="1.67" class="i">last</text><text x="50.1" y="1.67" class="i">update</text><text x="57.114" y="1.67" class="i">was</text><text x="61.122" y="1.67" class="i">just</text><text x="66.132" y="1.67" class="i">2</text><text x="68.136" y="1.67" class="i">seconds</text><text x="76.152" y="1.67" class="i">ago,</text><text x="81.162" y="1.67" class="i">so</text><text x="84.168" y="1.67" class="i">while</text><text x="90.18" y="1.67" class="i">it</text></symbol><symbol id="24"><text x="1.002" y="1.67" class="i">might</text><text x="7.014" y="1.67" class="i">still</text><text x="13.026" y="1.67" class="i">be</text><text x="16.032" y="1.67" class="i">relevant,</text><text x="26.052" y="1.67" class="i">it&apos;s</text><text x="31.062" y="1.67" class="i">advisable</text><text x="41.082" y="1.67" class="i">to</text><text x="44.088" y="1.67" class="i">check</text><text x="50.1" y="1.67" class="i">for</text><text x="54.108" y="1.67" class="i">any</text><text x="58.116" y="1.67" class="i">recent</text><text x="65.13" y="1.67" class="i">developments.</text></symbol><symbol id="25"><text y="1.67" class="f">━━━━━━━━━━━━━━━━━━━━━━━━━━━━━━━━━━━━━━━━━━━━━━━━━━━━━━━━━━━━━━━━━━━━━━━━━━━━━━</text></symbol><symbol id="26"><text x="2.004" y="1.67" class="f">AFTER</text><text x="8.016" y="1.67" class="f">THE</text><text x="12.024" y="1.67" class="f">SERVER</text><text x="19.038" y="1.67" class="f">DIED</text></symbol><symbol id="27"><text y="1.67" class="g">without</text><text x="8.016" y="1.67" class="g">leeward</text></symbol><symbol id="28"><text x="2.004" y="1.67" class="i">tool</text><text x="7.014" y="1.67" class="i">calls</text><text x="13.026" y="1.67" class="i">after</text><text x="19.038" y="1.67" class="i">the</text><text x="23.046" y="1.67" class="i">kill:</text><text x="29.058" y="1.67" class="i">1,</text><text x="32.064" y="1.67" class="i">failures:</text><text x="42.084" y="1.67" class="i">1</text></symbol><symbol id="29"><text x="2.004" y="1.67" class="i">final</text><text x="8.016" y="1.67" class="i">answer:</text><text x="16.032" y="1.67" class="i">I</text><text x="18.036" y="1.67" class="i">could</text><text x="24.048" y="1.67" class="i">not</text><text x="28.056" y="1.67" class="i">retrieve</text><text x="37.074" y="1.67" class="i">the</text><text x="41.082" y="1.67" class="i">incident</text><text x="50.1" y="1.67" class="i">notes</text><text x="56.112" y="1.67" class="i">for</text><text x="60.12" y="1.67" class="i">the</text><text x="64.128" y="1.67" class="i">blackout.</text><text x="74.148" y="1.67" class="i">Please</text><text x="81.162" y="1.67" class="i">provide</text><text x="89.178" y="1.67" class="i">mor</text></symbol><symbol id="30"><text y="1.67" class="i">e</text><text x="2.004" y="1.67" class="i">details</text><text x="10.02" y="1.67" class="i">if</text><text x="13.026" y="1.67" class="i">you</text><text x="17.034" y="1.67" class="i">have</text><text x="22.044" y="1.67" class="i">them.</text></symbol><symbol id="31"><text y="1.67" class="k">with</text><text x="5.01" y="1.67" class="k">leeward</text></symbol><symbol id="32"><text x="2.004" y="1.67" class="i">tool</text><text x="7.014" y="1.67" class="i">calls</text><text x="13.026" y="1.67" class="i">after</text><text x="19.038" y="1.67" class="i">the</text><text x="23.046" y="1.67" class="i">kill:</text><text x="29.058" y="1.67" class="i">1,</text><text x="32.064" y="1.67" class="i">failures:</text><text x="42.084" y="1.67" class="i">0</text></symbol><symbol id="33"><text x="2.004" y="1.67" class="i">leeward</text><text x="10.02" y="1.67" class="i">said:</text><text x="16.032" y="1.67" class="i">STALE{TOOL_GONE}</text><text x="33.066" y="1.67" class="i">PROCEED_WITH_CAUTION</text></symbol><symbol id="34"><text x="2.004" y="1.67" class="i">final</text><text x="8.016" y="1.67" class="i">answer:</text><text x="16.032" y="1.67" class="i">The</text><text x="20.04" y="1.67" class="i">incident</text><text x="29.058" y="1.67" class="i">notes</text><text x="35.07" y="1.67" class="i">mention</text><text x="43.086" y="1.67" class="i">the</text><text x="47.094" y="1.67" class="i">blackout,</text><text x="57.114" y="1.67" class="i">but</text><text x="61.122" y="1.67" class="i">the</text><text x="65.13" y="1.67" class="i">information</text><text x="77.154" y="1.67" class="i">is</text><text x="80.16" y="1.67" class="i">stale</text><text x="86.172" y="1.67" class="i">as</text><text x="89.178" y="1.67" class="i">the</text></symbol><symbol id="a"><path fill="transparent" d="M0 0h92v35H0z"/></symbol><symbol id="b"><path fill="#6f7683" d="M0 0h1.102v2.171H0z"/></symbol></defs><path class="a" d="M0 0h92v73.814H0z"/><g style="animation-duration:11.48s;animation-iteration-count:infinite;animation-name:o;animation-timing-function:steps(1,end)"><svg width="2116"><svg><use xlink:href="#a"/><use xlink:href="#b" x="-.004"/></svg><svg x="92"><use xlink:href="#a"/><use xlink:href="#b" x="-.004" y="10.83"/><use xlink:href="#1"/><use xlink:href="#2" y="4.342"/><use xlink:href="#3" y="6.513"/><use xlink:href="#2" y="8.684"/></svg><svg x="184"><use xlink:href="#a"/><use xlink:href="#b" x="-.004" y="13.001"/><use xlink:href="#1"/><use xlink:href="#2" y="4.342"/><use xlink:href="#3" y="6.513"/><use xlink:href="#2" y="8.684"/><use xlink:href="#4" y="10.855"/></svg><svg x="276"><use xlink:href="#a"/><use xlink:href="#b" x="-.004" y="15.172"/><use xlink:href="#1"/><use xlink:href="#2" y="4.342"/><use xlink:href="#3" y="6.513"/><use xlink:href="#2" y="8.684"/><use xlink:href="#4" y="10.855"/><use xlink:href="#5" y="13.026"/></svg><svg x="368"><use xlink:href="#a"/><use xlink:href="#b" x="-.004" y="17.343"/><use xlink:href="#1"/><use xlink:href="#2" y="4.342"/><use xlink:href="#3" y="6.513"/><use xlink:href="#2" y="8.684"/><use xlink:href="#4" y="10.855"/><use xlink:href="#5" y="13.026"/><use xlink:href="#6" y="15.197"/></svg><svg x="460"><use xlink:href="#a"/><use xlink:href="#b" x="-.004" y="23.856"/><use xlink:href="#1"/><use xlink:href="#2" y="4.342"/><use xlink:href="#3" y="6.513"/><use xlink:href="#2" y="8.684"/><use xlink:href="#4" y="10.855"/><use xlink:href="#5" y="13.026"/><use xlink:href="#6" y="15.197"/><use xlink:href="#7" y="17.368"/><use xlink:href="#8" y="19.539"/></svg><svg x="552"><use xlink:href="#a"/><use xlink:href="#b" x="-.004" y="26.027"/><use xlink:href="#1"/><use xlink:href="#2" y="4.342"/><use xlink:href="#3" y="6.513"/><use xlink:href="#2" y="8.684"/><use xlink:href="#4" y="10.855"/><use xlink:href="#5" y="13.026"/><use xlink:href="#6" y="15.197"/><use xlink:href="#7" y="17.368"/><use xlink:href="#8" y="19.539"/><use xlink:href="#9" y="23.881"/></svg><svg x="644"><use xlink:href="#a"/><use xlink:href="#b" x="-.004" y="30.369"/><use xlink:href="#1"/><use xlink:href="#2" y="4.342"/><use xlink:href="#3" y="6.513"/><use xlink:href="#2" y="8.684"/><use xlink:href="#4" y="10.855"/><use xlink:href="#5" y="13.026"/><use xlink:href="#6" y="15.197"/><use xlink:href="#7" y="17.368"/><use xlink:href="#8" y="19.539"/><use xlink:href="#9" y="23.881"/><use xlink:href="#10" y="28.223"/></svg><svg x="736"><use xlink:href="#a"/><use xlink:href="#b" x="-.004" y="32.54"/><use xlink:href="#1"/><use xlink:href="#2" y="4.342"/><use xlink:href="#3" y="6.513"/><use xlink:href="#2" y="8.684"/><use xlink:href="#4" y="10.855"/><use xlink:href="#5" y="13.026"/><use xlink:href="#6" y="15.197"/><use xlink:href="#7" y="17.368"/><use xlink:href="#8" y="19.539"/><use xlink:href="#9" y="23.881"/><use xlink:href="#10" y="28.223"/><use xlink:href="#5" y="30.394"/></svg><svg x="828"><use xlink:href="#a"/><use xlink:href="#b" x="-.004" y="34.711"/><use xlink:href="#1"/><use xlink:href="#2" y="4.342"/><use xlink:href="#3" y="6.513"/><use xlink:href="#2" y="8.684"/><use xlink:href="#4" y="10.855"/><use xlink:href="#5" y="13.026"/><use xlink:href="#6" y="15.197"/><use xlink:href="#7" y="17.368"/><use xlink:href="#8" y="19.539"/><use xlink:href="#9" y="23.881"/><use xlink:href="#10" y="28.223"/><use xlink:href="#5" y="30.394"/><use xlink:href="#11" y="32.565"/></svg><svg x="920"><use xlink:href="#a"/><use xlink:href="#b" x="-.004" y="39.053"/><use xlink:href="#1"/><use xlink:href="#2" y="4.342"/><use xlink:href="#3" y="6.513"/><use xlink:href="#2" y="8.684"/><use xlink:href="#4" y="10.855"/><use xlink:href="#5" y="13.026"/><use xlink:href="#6" y="15.197"/><use xlink:href="#7" y="17.368"/><use xlink:href="#8" y="19.539"/><use xlink:href="#9" y="23.881"/><use xlink:href="#10" y="28.223"/><use xlink:href="#5" y="30.394"/><use xlink:href="#11" y="32.565"/><use xlink:href="#12" y="34.736"/><use xlink:href="#13" y="36.907"/></svg><svg x="1012"><use xlink:href="#a"/><use xlink:href="#b" x="-.004" y="47.737"/><use xlink:href="#1"/><use xlink:href="#2" y="4.342"/><use xlink:href="#3" y="6.513"/><use xlink:href="#2" y="8.684"/><use xlink:href="#4" y="10.855"/><use xlink:href="#5" y="13.026"/><use xlink:href="#6" y="15.197"/><use xlink:href="#7" y="17.368"/><use xlink:href="#8" y="19.539"/><use xlink:href="#9" y="23.881"/><use xlink:href="#10" y="28.223"/><use xlink:href="#5" y="30.394"/><use xlink:href="#11" y="32.565"/><use xlink:href="#12" y="34.736"/><use xlink:href="#13" y="36.907"/><use xlink:href="#14" y="41.249"/><use xlink:href="#15" y="43.42"/><use xlink:href="#14" y="45.591"/></svg><svg x="1104"><use xlink:href="#a"/><use xlink:href="#b" x="-.004" y="49.908"/><use xlink:href="#1"/><use xlink:href="#2" y="4.342"/><use xlink:href="#3" y="6.513"/><use xlink:href="#2" y="8.684"/><use xlink:href="#4" y="10.855"/><use xlink:href="#5" y="13.026"/><use xlink:href="#6" y="15.197"/><use xlink:href="#7" y="17.368"/><use xlink:href="#8" y="19.539"/><use xlink:href="#9" y="23.881"/><use xlink:href="#10" y="28.223"/><use xlink:href="#5" y="30.394"/><use xlink:href="#11" y="32.565"/><use xlink:href="#12" y="34.736"/><use xlink:href="#13" y="36.907"/><use xlink:href="#14" y="41.249"/><use xlink:href="#15" y="43.42"/><use xlink:href="#14" y="45.591"/><use xlink:href="#16" y="47.762"/></svg><svg x="1196"><use xlink:href="#a"/><use xlink:href="#b" x="-.004" y="52.079"/><use xlink:href="#1"/><use xlink:href="#2" y="4.342"/><use xlink:href="#3" y="6.513"/><use xlink:href="#2" y="8.684"/><use xlink:href="#4" y="10.855"/><use xlink:href="#5" y="13.026"/><use xlink:href="#6" y="15.197"/><use xlink:href="#7" y="17.368"/><use xlink:href="#8" y="19.539"/><use xlink:href="#9" y="23.881"/><use xlink:href="#10" y="28.223"/><use xlink:href="#5" y="30.394"/><use xlink:href="#11" y="32.565"/><use xlink:href="#12" y="34.736"/><use xlink:href="#13" y="36.907"/><use xlink:href="#14" y="41.249"/><use xlink:href="#15" y="43.42"/><use xlink:href="#14" y="45.591"/><use xlink:href="#16" y="47.762"/><use xlink:href="#5" y="49.933"/></svg><svg x="1288"><use xlink:href="#a"/><use xlink:href="#b" x="-.004" y="56.421"/><use xlink:href="#1"/><use xlink:href="#2" y="4.342"/><use xlink:href="#3" y="6.513"/><use xlink:href="#2" y="8.684"/><use xlink:href="#4" y="10.855"/><use xlink:href="#5" y="13.026"/><use xlink:href="#6" y="15.197"/><use xlink:href="#7" y="17.368"/><use xlink:href="#8" y="19.539"/><use xlink:href="#9" y="23.881"/><use xlink:href="#10" y="28.223"/><use xlink:href="#5" y="30.394"/><use xlink:href="#11" y="32.565"/><use xlink:href="#12" y="34.736"/><use xlink:href="#13" y="36.907"/><use xlink:href="#14" y="41.249"/><use xlink:href="#15" y="43.42"/><use xlink:href="#14" y="45.591"/><use xlink:href="#16" y="47.762"/><use xlink:href="#5" y="49.933"/><use xlink:href="#17" y="52.104"/><use xlink:href="#6" y="54.275"/></svg><svg x="1380"><use xlink:href="#a"/><use xlink:href="#b" x="-.004" y="62.934"/><use xlink:href="#1"/><use xlink:href="#2" y="4.342"/><use xlink:href="#3" y="6.513"/><use xlink:href="#2" y="8.684"/><use xlink:href="#4" y="10.855"/><use xlink:href="#5" y="13.026"/><use xlink:href="#6" y="15.197"/><use xlink:href="#7" y="17.368"/><use xlink:href="#8" y="19.539"/><use xlink:href="#9" y="23.881"/><use xlink:href="#10" y="28.223"/><use xlink:href="#5" y="30.394"/><use xlink:href="#11" y="32.565"/><use xlink:href="#12" y="34.736"/><use xlink:href="#13" y="36.907"/><use xlink:href="#14" y="41.249"/><use xlink:href="#15" y="43.42"/><use xlink:href="#14" y="45.591"/><use xlink:href="#16" y="47.762"/><use xlink:href="#5" y="49.933"/><use xlink:href="#17" y="52.104"/><use xlink:href="#6" y="54.275"/><use xlink:href="#7" y="56.446"/><use xlink:href="#8" y="58.617"/></svg><svg x="1472"><use xlink:href="#a"/><use xlink:href="#b" x="-.004" y="65.105"/><use xlink:href="#1"/><use xlink:href="#2" y="4.342"/><use xlink:href="#3" y="6.513"/><use xlink:href="#2" y="8.684"/><use xlink:href="#4" y="10.855"/><use xlink:href="#5" y="13.026"/><use xlink:href="#6" y="15.197"/><use xlink:href="#7" y="17.368"/><use xlink:href="#8" y="19.539"/><use xlink:href="#9" y="23.881"/><use xlink:href="#10" y="28.223"/><use xlink:href="#5" y="30.394"/><use xlink:href="#11" y="32.565"/><use xlink:href="#12" y="34.736"/><use xlink:href="#13" y="36.907"/><use xlink:href="#14" y="41.249"/><use xlink:href="#15" y="43.42"/><use xlink:href="#14" y="45.591"/><use xlink:href="#16" y="47.762"/><use xlink:href="#5" y="49.933"/><use xlink:href="#17" y="52.104"/><use xlink:href="#6" y="54.275"/><use xlink:href="#7" y="56.446"/><use xlink:href="#8" y="58.617"/><use xlink:href="#9" y="62.959"/></svg><svg x="1564"><use xlink:href="#a"/><use xlink:href="#b" x="-.004" y="69.447"/><use xlink:href="#1"/><use xlink:href="#2" y="4.342"/><use xlink:href="#3" y="6.513"/><use xlink:href="#2" y="8.684"/><use xlink:href="#4" y="10.855"/><use xlink:href="#5" y="13.026"/><use xlink:href="#6" y="15.197"/><use xlink:href="#7" y="17.368"/><use xlink:href="#8" y="19.539"/><use xlink:href="#9" y="23.881"/><use xlink:href="#10" y="28.223"/><use xlink:href="#5" y="30.394"/><use xlink:href="#11" y="32.565"/><use xlink:href="#12" y="34.736"/><use xlink:href="#13" y="36.907"/><use xlink:href="#14" y="41.249"/><use xlink:href="#15" y="43.42"/><use xlink:href="#14" y="45.591"/><use xlink:href="#16" y="47.762"/><use xlink:href="#5" y="49.933"/><use xlink:href="#17" y="52.104"/><use xlink:href="#6" y="54.275"/><use xlink:href="#7" y="56.446"/><use xlink:href="#8" y="58.617"/><use xlink:href="#9" y="62.959"/><use xlink:href="#18" y="67.301"/></svg><svg x="1656"><use xlink:href="#a"/><use xlink:href="#b" x="-.004" y="71.618"/><use xlink:href="#1"/><use xlink:href="#2" y="4.342"/><use xlink:href="#3" y="6.513"/><use xlink:href="#2" y="8.684"/><use xlink:href="#4" y="10.855"/><use xlink:href="#5" y="13.026"/><use xlink:href="#6" y="15.197"/><use xlink:href="#7" y="17.368"/><use xlink:href="#8" y="19.539"/><use xlink:href="#9" y="23.881"/><use xlink:href="#10" y="28.223"/><use xlink:href="#5" y="30.394"/><use xlink:href="#11" y="32.565"/><use xlink:href="#12" y="34.736"/><use xlink:href="#13" y="36.907"/><use xlink:href="#14" y="41.249"/><use xlink:href="#15" y="43.42"/><use xlink:href="#14" y="45.591"/><use xlink:href="#16" y="47.762"/><use xlink:href="#5" y="49.933"/><use xlink:href="#17" y="52.104"/><use xlink:href="#6" y="54.275"/><use xlink:href="#7" y="56.446"/><use xlink:href="#8" y="58.617"/><use xlink:href="#9" y="62.959"/><use xlink:href="#18" y="67.301"/><use xlink:href="#5" y="69.472"/></svg><svg x="1748"><use xlink:href="#a"/><use xlink:href="#b" x="-.004" y="73.789"/><use xlink:href="#2"/><use xlink:href="#3" y="2.171"/><use xlink:href="#2" y="4.342"/><use xlink:href="#4" y="6.513"/><use xlink:href="#5" y="8.684"/><use xlink:href="#6" y="10.855"/><use xlink:href="#7" y="13.026"/><use xlink:href="#8" y="15.197"/><use xlink:href="#9" y="19.539"/><use xlink:href="#10" y="23.881"/><use xlink:href="#5" y="26.052"/><use xlink:href="#11" y="28.223"/><use xlink:href="#12" y="30.394"/><use xlink:href="#13" y="32.565"/><use xlink:href="#14" y="36.907"/><use xlink:href="#15" y="39.078"/><use xlink:href="#14" y="41.249"/><use xlink:href="#16" y="43.42"/><use xlink:href="#5" y="45.591"/><use xlink:href="#17" y="47.762"/><use xlink:href="#6" y="49.933"/><use xlink:href="#7" y="52.104"/><use xlink:href="#8" y="54.275"/><use xlink:href="#9" y="58.617"/><use xlink:href="#18" y="62.959"/><use xlink:href="#5" y="65.13"/><use xlink:href="#19" y="67.301"/><use xlink:href="#20" y="69.472"/><use xlink:href="#21" y="71.643"/></svg><svg x="1840"><use xlink:href="#a"/><use xlink:href="#b" x="-.004" y="73.789"/><use xlink:href="#4"/><use xlink:href="#5" y="2.171"/><use xlink:href="#6" y="4.342"/><use xlink:href="#7" y="6.513"/><use xlink:href="#8" y="8.684"/><use xlink:href="#9" y="13.026"/><use xlink:href="#10" y="17.368"/><use xlink:href="#5" y="19.539"/><use xlink:href="#11" y="21.71"/><use xlink:href="#12" y="23.881"/><use xlink:href="#13" y="26.052"/><use xlink:href="#14" y="30.394"/><use xlink:href="#15" y="32.565"/><use xlink:href="#14" y="34.736"/><use xlink:href="#16" y="36.907"/><use xlink:href="#5" y="39.078"/><use xlink:href="#17" y="41.249"/><use xlink:href="#6" y="43.42"/><use xlink:href="#7" y="45.591"/><use xlink:href="#8" y="47.762"/><use xlink:href="#9" y="52.104"/><use xlink:href="#18" y="56.446"/><use xlink:href="#5" y="58.617"/><use xlink:href="#19" y="60.788"/><use xlink:href="#20" y="62.959"/><use xlink:href="#21" y="65.13"/><use xlink:href="#22" y="67.301"/><use xlink:href="#23" y="69.472"/><use xlink:href="#24" y="71.643"/></svg><svg x="1932"><use xlink:href="#a"/><use xlink:href="#b" x="71.996" y="73.789"/><use xlink:href="#14" y="2.171"/><use xlink:href="#15" y="4.342"/><use xlink:href="#14" y="6.513"/><use xlink:href="#16" y="8.684"/><use xlink:href="#5" y="10.855"/><use xlink:href="#17" y="13.026"/><use xlink:href="#6" y="15.197"/><use xlink:href="#7" y="17.368"/><use xlink:href="#8" y="19.539"/><use xlink:href="#9" y="23.881"/><use xlink:href="#18" y="28.223"/><use xlink:href="#5" y="30.394"/><use xlink:href="#19" y="32.565"/><use xlink:href="#20" y="34.736"/><use xlink:href="#21" y="36.907"/><use xlink:href="#22" y="39.078"/><use xlink:href="#23" y="41.249"/><use xlink:href="#24" y="43.42"/><use xlink:href="#25" y="47.762"/><use xlink:href="#26" y="49.933"/><use xlink:href="#25" y="52.104"/><use xlink:href="#27" y="54.275"/><use xlink:href="#28" y="56.446"/><use xlink:href="#29" y="58.617"/><use xlink:href="#30" y="60.788"/><use xlink:href="#31" y="65.13"/><use xlink:href="#32" y="67.301"/><use xlink:href="#33" y="69.472"/><use xlink:href="#34" y="71.643"/><text x="1.002" y="75.484" class="i">endpoint</text><text x="10.02" y="75.484" class="i">is</text><text x="13.026" y="75.484" class="i">unreachable</text><text x="25.05" y="75.484" class="i">and</text><text x="29.058" y="75.484" class="i">classified</text><text x="40.08" y="75.484" class="i">as</text><text x="43.086" y="75.484" class="i">`volatile`.</text><text x="55.11" y="75.484" class="i">The</text><text x="59.118" y="75.484" class="i">last</text><text x="64.128" y="75.484" class="i">update</text><text x="71.142" y="75.484" class="i">w</text></svg><svg x="2024"><use xlink:href="#a"/><use xlink:href="#b" x="-.004" y="73.789"/><use xlink:href="#15"/><use xlink:href="#14" y="2.171"/><use xlink:href="#16" y="4.342"/><use xlink:href="#5" y="6.513"/><use xlink:href="#17" y="8.684"/><use xlink:href="#6" y="10.855"/><use xlink:href="#7" y="13.026"/><use xlink:href="#8" y="15.197"/><use xlink:href="#9" y="19.539"/><use xlink:href="#18" y="23.881"/><use xlink:href="#5" y="26.052"/><use xlink:href="#19" y="28.223"/><use xlink:href="#20" y="30.394"/><use xlink:href="#21" y="32.565"/><use xlink:href="#22" y="34.736"/><use xlink:href="#23" y="36.907"/><use xlink:href="#24" y="39.078"/><use xlink:href="#25" y="43.42"/><use xlink:href="#26" y="45.591"/><use xlink:href="#25" y="47.762"/><use xlink:href="#27" y="49.933"/><use xlink:href="#28" y="52.104"/><use xlink:href="#29" y="54.275"/><use xlink:href="#30" y="56.446"/><use xlink:href="#31" y="60.788"/><use xlink:href="#32" y="62.959"/><use xlink:href="#33" y="65.13"/><use xlink:href="#34" y="67.301"/><text x="1.002" y="71.142" class="i">endpoint</text><text x="10.02" y="71.142" class="i">is</text><text x="13.026" y="71.142" class="i">unreachable</text><text x="25.05" y="71.142" class="i">and</text><text x="29.058" y="71.142" class="i">classified</text><text x="40.08" y="71.142" class="i">as</text><text x="43.086" y="71.142" class="i">`volatile`.</text><text x="55.11" y="71.142" class="i">The</text><text x="59.118" y="71.142" class="i">last</text><text x="64.128" y="71.142" class="i">update</text><text x="71.142" y="71.142" class="i">was</text><text x="75.15" y="71.142" class="i">just</text><text x="80.16" y="71.142" class="i">2</text><text x="82.164" y="71.142" class="i">seconds</text><text x="90.18" y="71.142" class="i">ag</text><text y="73.313" class="i">o,</text><text x="3.006" y="73.313" class="i">so</text><text x="6.012" y="73.313" class="i">while</text><text x="12.024" y="73.313" class="i">it</text><text x="15.03" y="73.313" class="i">might</text><text x="21.042" y="73.313" class="i">still</text><text x="27.054" y="73.313" class="i">be</text><text x="30.06" y="73.313" class="i">relevant,</text><text x="40.08" y="73.313" class="i">it&apos;s</text><text x="45.09" y="73.313" class="i">advisable</text><text x="55.11" y="73.313" class="i">to</text><text x="58.116" y="73.313" class="i">check</text><text x="64.128" y="73.313" class="i">for</text><text x="68.136" y="73.313" class="i">any</text><text x="72.144" y="73.313" class="i">recent</text><text x="79.158" y="73.313" class="i">developments.</text></svg></svg></g></g></svg></svg>